# xmcd CD database file
#
# Track frame offsets:
#	150
#	10852
#	22913
#	43138
#	59639
#	81024
#	102873
#	117507
#	136329
#	154454
#	174379
#	189448
#	212592
#	231838
#	253766
#	273848
#	292545
#	312184
#	330278
#	338889
#
# Disc length: 4749 seconds
#
# Revision: 2
# Processed by: cddbd v1.5.2PL0 Copyright (c) Steve Scherf et al.
# Submitted via: CDex 1.70beta2
#
DISCID=10128b14
DTITLE=Bee Gees - MTV History 2000 - CD 2
DYEAR=1999
DGENRE=Classical
TTITLE0=Massachusetts
TTITLE1=Words
TTITLE2=Closer Than Close
TTITLE3=Lonely days
TTITLE4=Stayin' Alive
TTITLE5=Too Much Heaven
TTITLE6=More Than A Woman
TTITLE7=Love You Inside Out
TTITLE8=How Deep Is Your Love
TTITLE9=I Still Love You
TTITLE10=If I Can't Have You
TTITLE11=Spirits (Having Flown)
TTITLE12=Living Eyes
TTITLE13=Wind Of Change
TTITLE14=Wildflower
TTITLE15=Nothing Could Be Good
TTITLE16=Living Together
TTITLE17=Crying Everyday
TTITLE18=And The Sun Will Shine
TTITLE19=Mellody Fair
EXTD=YEAR: 1999
EXTT0=
EXTT1=
EXTT2=
EXTT3=
EXTT4=
EXTT5=
EXTT6=
EXTT7=
EXTT8=
EXTT9=
EXTT10=
EXTT11=
EXTT12=
EXTT13=
EXTT14=
EXTT15=
EXTT16=
EXTT17=
EXTT18=
EXTT19=
PLAYORDER=
